<?xml version="1.0" encoding="utf-8"?>
<?xml-stylesheet type="text/xsl" href="rss1.xsl"?>
<rss version="2.0" xmlns:atom="http://www.w3.org/2005/Atom" xmlns:content="http://purl.org/rss/1.0/modules/content/" xmlns:dc="http://purl.org/dc/elements/1.1/" xmlns:media="http://search.yahoo.com/mrss/">
<channel>
 <title>Getty</title>
 <link>http://www.gettyimg.com/</link>
 <atom:link href="http://www.gettyimg.com/" rel="self" type="application/rss+xml" />

 
                <item>
                <title><![CDATA[【PRORES HD】Selena Gomez - Single Soon (Master ProRes LPCM 4K)]]></title>
                <link><![CDATA[https://sharemania.us/threads/selena-gomez-single-soon-master-prores-lpcm-4k.227095/]]></link>
                <description><![CDATA[<article>
<blockquote class="messageText SelectQuoteContainer ugc baseHtml">
<div style="text-align: center"><img src="https://i.imgur.com/7sYgaLz.png" class="bbCodeImage LbImage" alt="[​IMG]" data-url="https://i.imgur.com/7sYgaLz.png" style=""><br>
<br>
<div class="ToggleTriggerAnchor bbCodeSpoilerContainer">
<button type="button" class="button bbCodeSpoilerButton ToggleTrigger Tooltip JsOnly" data-target="> .SpoilerTarget"><span>Spoiler: <span class="SpoilerTitle">Mediainfo</span></span></button>
<div class="SpoilerTarget bbCodeSpoilerText">Format : MPEG-4<br>
Format profile : QuickTime<br>
Codec ID : qt 2005.03 (qt )<br>
File size : 14.9 GiB<br>
Duration : 2 min 56 s<br>
Overall bit rate mode : Variable<br>
Overall bit rate : 724 Mb/s<br>
Encoded date : UTC 2023-08-16 19:46:32<br>
Tagged date : UTC 2023-08-16 19:46:32<br>
<br>
Video<br>
ID : 1<br>
Format : ProRes<br>
Format version : Version 0<br>
Format profile : 422 HQ<br>
Codec ID : apch<br>
Duration : 2 min 56 s<br>
Bit rate mode : Variable<br>
Bit rate : 722 Mb/s<br>
Width : 3 840 pixels<br>
Height : 2 160 pixels<br>
Display aspect ratio : 16:9<br>
Frame rate mode : Constant<br>
Frame rate : 23.976 (24000/1001) FPS<br>
Color space : YUV<br>
Chroma subsampling : 4:2:2<br>
Scan type : Progressive<br>
Bits/(Pixel*Frame) : 3.632<br>
Stream size : 14.9 GiB (100%)<br>
Writing library : aut0<br>
Language : English<br>
Encoded date : UTC 2023-08-16 19:46:32<br>
Tagged date : UTC 2023-08-16 19:46:32<br>
Color primaries : BT.709<br>
Transfer characteristics : BT.709<br>
Matrix coefficients : BT.709<br>
<br>
Audio<br>
ID : 3<br>
Format : PCM<br>
Format settings, Endianness : Little<br>
Format settings, Sign : Signed<br>
Codec ID : lpcm<br>
Duration : 2 min 56 s<br>
Bit rate mode : Constant<br>
Bit rate : 1 536 kb/s<br>
Channel(s) : 2 channels<br>
Channel positions : Front: L R<br>
Sampling rate : 48.0 kHz<br>
Bit depth : 16 bits<br>
Stream size : 32.4 MiB (0%)<br>
Language : English<br>
Encoded date : UTC 2023-08-16 19:46:32<br>
Tagged date : UTC 2023-08-16 19:46:32<br>
<br>
Other<br>
ID : 2<br>
Type : Time code<br>
Format : QuickTime TC<br>
Duration : 2 min 56 s<br>
Time code of first frame : 00:59:59:23<br>
Time code, striped : Yes<br>
Title : untitled<br>
Language : English<br>
Encoded date : UTC 2023-08-16 19:46:32<br>
Tagged date : UTC 2023-08-16 19:46:32</div>
</div><br>
<img src="http://i.imgur.com/H3epECR.png" class="bbCodeImage LbImage" alt="[​IMG]" data-url="http://i.imgur.com/H3epECR.png" style=""><br>
<div class="bbCodeBlock bbCodeVfcHH HiddenContent">
<div class="attribution type">Hidden Content:</div>
<blockquote>You must either reply or click 'Like' to see the hidden information contained here.</blockquote>
</div></div>
<div class="messageTextEndMarker">&nbsp;</div>
</blockquote>
</article>]]></description>
                <author><![CDATA[SUPREME]]></author>
                </item>

                </channel></rss>